<svg xmlns="http://www.w3.org/2000/svg" width="101.3" height="101.3"><circle fill="#0E4DAA" cx="50.7" cy="50.7" r="50.7"/><g fill="none" stroke="#FFF" stroke-width="2.5" stroke-miterlimit="10"><path d="M39.4 20c-.7 2.3-1.3 4.8-1.8 7.5-.9 4.6-1.5 9.7-1.8 15.2-.1 2.6-.2 5.2-.2 7.9s.1 5.4.2 7.9c.3 5.5.9 10.6 1.8 15.2 2.6 13.4 7.3 22.4 12.7 22.4 5.4 0 10.1-9 12.7-22.4.9-4.6 1.5-9.7 1.8-15.2.1-2.6.2-5.2.2-7.9s-.1-5.4-.2-7.9c-.3-5.5-.9-10.6-1.8-15.2-2.5-13.4-7.3-22.4-12.7-22.4-2.7 0-5.3 2.3-7.5 6.3"/><path d="M81.7 57.6c-2-2.3-4.3-4.6-7-7-3-2.6-6.3-5.3-9.9-7.9-2.1-1.5-4.3-3-6.6-4.5-2.7-1.7-5.3-3.3-7.9-4.7-4.4-2.4-8.7-4.4-12.7-6-12.7-5-22.8-5.9-25.7-1.4-3 4.9 2.9 14.5 14 24.5 3 2.6 6.3 5.3 9.9 7.9 2.1 1.5 4.3 3 6.6 4.5 2.7 1.7 5.3 3.3 7.9 4.7 4.4 2.4 8.7 4.4 12.7 6 12.7 5 22.8 5.9 25.7 1.4 1.5-2.3.9-5.7-1.3-9.7"/><path d="M21.9 78c-4.8.4-8.4-.5-9.9-2.9-3.1-4.8 2.8-14.5 13.9-24.5 3-2.7 6.3-5.3 9.9-7.9 2.1-1.5 4.3-3 6.6-4.5 2.7-1.7 5.3-3.3 7.9-4.7 4.4-2.4 8.7-4.4 12.7-6 12.7-5 22.8-5.9 25.7-1.4 3.1 4.8-2.8 14.5-13.9 24.5-3 2.6-6.3 5.3-9.9 7.9-2.1 1.5-4.3 3-6.6 4.5-2.7 1.7-5.3 3.3-7.9 4.7-4.4 2.4-8.7 4.4-12.7 6-2.5 1-5 1.9-7.3 2.5"/></g><circle fill="#FFF" cx="25.8" cy="77.3" r="5.6"/><circle fill="#FFF" cx="84.7" cy="61.9" r="5.6"/><circle fill="#FFF" cx="40.5" cy="15.6" r="5.6"/><circle fill="#FFF" cx="50.3" cy="50.6" r="5.6"/></svg>